<?xml version="1.0" encoding="UTF-8"?>
<svg width="100px" height="100px" viewBox="0 0 100 100" version="1.1" xmlns="http://www.w3.org/2000/svg" xmlns:xlink="http://www.w3.org/1999/xlink">
    <title>编组 21备份</title>
    <defs>
        <rect id="path-1" x="0" y="0" width="100" height="100" rx="24"></rect>
    </defs>
    <g id="页面-1" stroke="none" stroke-width="1" fill="none" fill-rule="evenodd">
        <g id="桌面备份-3" transform="translate(-466.000000, -555.000000)">
            <g id="编组-16" transform="translate(155.000000, 110.000000)">
                <g id="编组-36" transform="translate(311.000000, 445.000000)">
                    <mask id="mask-2" fill="white">
                        <use xlink:href="#path-1"></use>
                    </mask>
                    <use id="矩形" fill="#354146" xlink:href="#path-1"></use>
                    <path d="M23.23,42.504 C30.412,42.504 34.36,36.372 34.36,27.3 C34.36,18.228 30.412,12.096 23.23,12.096 C16.048,12.096 12.1,18.228 12.1,27.3 C12.1,36.372 16.048,42.504 23.23,42.504 Z M23.23,39.648 C18.064,39.648 15.04,35.154 15.04,27.3 C15.04,19.446 18.064,14.952 23.23,14.952 C28.396,14.952 31.42,19.446 31.42,27.3 C31.42,35.154 28.396,39.648 23.23,39.648 Z M46.036,42 L55.654,27.678 C56.788,26.082 57.46,24.108 57.46,21.798 C57.46,16.044 53.302,12.096 47.59,12.096 C41.878,12.096 37.72,16.044 37.72,21.798 C37.72,27.552 41.878,31.5 47.59,31.5 C48.388,31.5 49.186,31.416 49.942,31.248 L42.718,42 L46.036,42 Z M47.59,28.644 C43.432,28.644 40.66,25.914 40.66,21.798 C40.66,17.682 43.432,14.952 47.59,14.952 C51.748,14.952 54.52,17.682 54.52,21.798 C54.52,25.914 51.748,28.644 47.59,28.644 Z" id="09" fill="#00DB63" fill-rule="nonzero" mask="url(#mask-2)"></path>
                    <path d="M30.37,82 L30.37,79.144 L15.88,79.144 L24.28,70.786 C27.262,67.804 29.74,64.654 29.74,60.916 C29.74,55.162 25.246,52.096 20.878,52.096 C17.14,52.096 13.696,53.902 11.806,57.64 L14.284,59.11 C15.712,56.212 18.022,54.952 20.878,54.952 C23.902,54.952 26.8,56.926 26.8,60.916 C26.8,63.646 24.742,66.208 22.264,68.686 L11.68,79.354 L11.68,82 L30.37,82 Z M43.348,82.504 C48.682,82.504 53.176,79.564 53.176,74.02 C53.176,70.744 51.202,68.182 48.304,66.838 C50.572,65.536 52.21,63.268 52.21,60.244 C52.21,54.658 47.716,52.096 43.348,52.096 C38.98,52.096 34.486,54.658 34.486,60.244 C34.486,63.268 36.124,65.536 38.392,66.838 C35.494,68.182 33.52,70.744 33.52,74.02 C33.52,79.564 38.014,82.504 43.348,82.504 Z M43.348,65.536 C40.324,65.536 37.426,63.814 37.426,60.244 C37.426,56.422 40.324,54.952 43.348,54.952 C46.372,54.952 49.27,56.422 49.27,60.244 C49.27,63.814 46.372,65.536 43.348,65.536 Z M43.348,79.648 C39.358,79.648 36.46,77.8 36.46,74.02 C36.46,70.24 39.358,68.392 43.348,68.392 C47.338,68.392 50.236,70.24 50.236,74.02 C50.236,77.8 47.338,79.648 43.348,79.648 Z" id="28" fill="#FFFFFF" fill-rule="nonzero" mask="url(#mask-2)"></path>
                    <circle id="椭圆形备份-6" fill="#00DB63" mask="url(#mask-2)" cx="69" cy="19" r="3"></circle>
                    <circle id="椭圆形备份-7" fill="#00DB63" mask="url(#mask-2)" cx="69" cy="35" r="3"></circle>
                </g>
            </g>
        </g>
    </g>
</svg>